PathFileType	4	(X/Y/Z)	Patient4_TMGait_0pt2_02_right_07.trc.trc
DataRate	CameraRate	NumFrames	NumMarkers	Units	OrigDataRate	OrigDataStartFrame	OrigNumFrames
42.296072507553	42.296072507553	5	33	mm	42.296072507553	124	       141
Frame#	Time	R.Midfoot.Superior			Sacral			L.Shoulder			Chest			R.Shoulder			Neck			R.ASIS			L.ASIS			R.Thigh.Superior			R.Thigh.Lateral			R.Thigh.Inferior			R.Patella			L.Thigh.Superior			L.Thigh.Lateral			L.Thigh.Inferior			L.Patella			L.Shank.Superior			L.Shank.Lateral			L.Shank.Inferior			R.Shank.Superior			R.Shank.Lateral			R.Shank.Inferior			R.Heel			R.Midfoot.Lateral			R.Toe			L.Heel			L.Midfoot.Lateral			L.Midfoot.Superior			L.Toe			L.Elbow			L.Wrist			R.Elbow			R.Wrist			
		X1	Y1	Z1	X2	Y2	Z2	X3	Y3	Z3	X4	Y4	Z4	X5	Y5	Z5	X6	Y6	Z6	X7	Y7	Z7	X8	Y8	Z8	X9	Y9	Z9	X10	Y10	Z10	X11	Y11	Z11	X12	Y12	Z12	X13	Y13	Z13	X14	Y14	Z14	X15	Y15	Z15	X16	Y16	Z16	X17	Y17	Z17	X18	Y18	Z18	X19	Y19	Z19	X20	Y20	Z20	X21	Y21	Z21	X22	Y22	Z22	X23	Y23	Z23	X24	Y24	Z24	X25	Y25	Z25	X26	Y26	Z26	X27	Y27	Z27	X28	Y28	Z28	X29	Y29	Z29	X30	Y30	Z30	X31	Y31	Z31	X32	Y32	Z32	X33	Y33	Z33	

124	17.398071428571	1184.829702346157	109.150929809335	611.048010535704	813.006258427272	1009.491337037449	421.519584353498	1070.936705039293	1424.361691164866	297.004881717661	1117.792495891701	1349.988718341254	478.300013002050	997.527311588745	1433.692940535704	622.664951717022	1011.056679318328	1487.222264846726	444.875407589358	1008.664584136654	931.302932829234	587.166948467822	1054.126860624680	952.789295321768	316.153739298110	1076.707630299820	754.379505560409	562.444879981299	1016.308572672793	635.304055772684	627.412263344138	1106.830708822959	593.664150511364	553.536053649061	1127.250954098529	512.592782441291	567.647570745515	1060.642198974514	727.679641355913	351.647955056746	963.029353530413	620.979858203425	278.353306034147	1019.814227924268	536.241313698768	356.998049858312	1006.469916985395	467.779287173345	365.637674494643	968.521847468324	401.354357113186	353.143640999463	866.402407180084	300.416790448835	297.715870620885	892.965492479721	184.854534000336	373.923643619923	1113.541555913251	421.185680461660	580.915618179097	1060.874786627718	312.882379986387	655.020906979842	1121.248002412854	220.943464043867	600.817703575404	1015.698736019622	39.878116140339	594.058006120689	1110.120271088425	34.002966070078	652.942767440494	1310.066337460463	70.302356045080	615.447303256479	745.305574230702	38.876451727259	411.795834473996	819.207468987886	35.714648377315	331.426781950887	904.333410570972	95.444504561765	359.721130567467	1031.494716989409	40.391159112262	329.292308055951	1232.497173698044	1154.374687915134	139.847449578500	1488.285257931743	1166.324836441320	185.492171503486	806.340266870204	1137.048635862631	684.737427225305	751.027539067412	880.224509546867	668.215866595780	
125	17.421714285714	1181.931165085497	107.084671219714	608.780923929302	816.299988813993	1008.172783904400	427.765733764182	1071.681380491185	1423.822678829321	302.792807704297	1119.640987703794	1349.882518973067	483.961381541940	999.409321171048	1433.070646033361	628.722516723460	1012.072755341830	1486.537604098257	450.731365099322	1012.825748559637	929.955359831151	592.307406924851	1057.256027437226	952.578524320154	321.482530028837	1081.771057406719	753.126596177457	565.506980305011	1021.159204951588	633.507686342645	629.543211793829	1111.527808810572	592.537612106867	555.221467885761	1130.852763231022	510.519503565848	568.515280496897	1062.334820353214	726.351069352532	355.298454301859	963.009619381254	620.995547952418	281.838114230440	1019.119965058238	535.219288783937	359.550119546543	1005.072182797480	466.734831570218	367.834455843428	966.552738904007	400.807257671394	355.077895794829	863.273771957074	301.139271230930	299.205812690935	889.198673567705	184.794090263667	374.538238566138	1116.335231361637	418.819897499592	581.457664922115	1062.819846646371	311.169026088884	655.337916469556	1120.826002450489	218.942427759890	599.856334143902	1011.955904857849	40.975459464490	593.368961216454	1106.291134570279	34.517822572226	652.260573809162	1306.393235796785	66.277105079242	613.420948967048	740.626381186656	39.229626622552	411.737151480465	814.579495671139	35.898930641732	331.467148473967	899.812248635530	95.563360996128	359.722298895902	1026.826812239446	40.281752982579	329.237436146877	1234.719686280524	1154.880496502620	145.308599032201	1490.142686465425	1172.935556806938	190.473042916707	811.736315603209	1134.042331559392	692.363577847462	759.733037183096	876.317564697341	677.171616435235	
126	17.445357142857	1177.515760794176	105.106060160956	606.621549998274	819.767250926265	1007.153942198994	434.515546167187	1072.454493506966	1423.577820000608	308.697231306657	1121.821069610271	1349.980615665822	489.631966235972	1001.855203541661	1432.596367553351	635.018238367931	1013.360282818406	1486.090473569411	456.814667250530	1017.513499245242	928.993898088416	597.602268263235	1060.398595574511	952.536116153557	326.841289761010	1087.268417610313	752.232821678653	568.406894763303	1026.726773887066	632.167007645015	631.793241017325	1116.630527036516	591.662633242081	556.782147925196	1135.042513559060	508.505865687647	569.366625002172	1063.995642827616	725.190856432809	358.972494652965	962.868783567714	621.203951252132	285.495211248608	1018.462912866832	534.393019035007	362.142872756290	1003.757473217510	465.878465086740	370.074387992632	964.624271897091	400.465967652529	357.073452842811	860.130890086896	302.125268092589	300.802118463101	885.483102594766	184.925702320478	375.126147187738	1119.200993330187	416.560849851333	581.958129622327	1064.367309411216	309.751930816656	655.615142523294	1119.521516110719	216.971613011527	598.830165537271	1006.615588528246	42.023378331023	592.581567929791	1100.811883324333	35.143006705746	651.685991136575	1301.279812258590	62.365309952310	611.829303806873	735.991342316441	39.857623526703	411.672781589216	810.003659253945	36.247515420360	331.517100879962	895.400007183940	95.750792529247	359.698723278431	1022.195258527513	40.127487166288	329.166639754193	1236.214882319554	1154.995871972524	150.840429978487	1491.390959535999	1177.818519660466	195.293718615728	817.832539643416	1131.222301809518	700.891597081366	769.140757531168	872.626920486269	687.680562658567	
127	17.469000000000	1172.273387827248	103.316695270983	604.741297505356	823.324713034654	1006.509274443530	441.700344753276	1073.304556462331	1423.642449690838	314.640885208959	1124.313904688377	1350.289629850759	495.240241171347	1004.860929738813	1432.326742554740	641.448578941447	1014.946451885409	1485.922566995923	463.032960674747	1022.569905522561	928.463522135568	603.040973442196	1063.465161871420	952.678019154233	332.206719863606	1092.878105917403	751.662150151935	571.326138098352	1032.565008874688	631.262860268387	634.313498983725	1121.726480337497	591.002647965737	558.416400984884	1139.398752413730	506.655857549087	570.353055403414	1065.509176945256	724.260780882276	362.707101645649	962.563495176286	621.654056889726	289.289478406755	1017.800443308180	533.810780711535	364.753264358636	1002.486368000077	465.263213295997	372.323862876008	962.711388676131	400.381231747876	359.099688545852	856.961211232239	303.415613571814	302.493107029042	881.818069388572	185.295255620582	375.671980599595	1121.934092866932	414.522282410725	582.556820420327	1065.567655999329	308.584785060315	655.994057391883	1117.657773620263	215.122033638883	597.901837659014	1000.471584213667	42.867503825054	591.833071533772	1094.516566274452	35.741676236906	651.265751152141	1295.476901613541	58.845502970890	610.678406928364	731.409780466625	40.838355003939	411.607028687893	805.479083434727	36.807911618722	331.575957075950	891.110537364788	96.019777052708	359.647969304354	1017.592939787619	39.923299902377	329.082129290645	1236.969798696522	1154.680910766344	156.431100044679	1492.087704064414	1180.851972211651	199.936993959938	824.537806750793	1128.739962006816	710.153485418286	779.182044727239	869.326831903460	699.498661755273	
128	17.492642857143	1166.715317334833	101.782555009445	603.238276449357	826.888044063838	1006.271773899958	449.261232501085	1074.246734211126	1423.996733095329	320.551010277537	1127.084242477715	1350.791780853412	500.717486996624	1008.408280151977	1432.289349522601	647.916897638799	1016.837041880146	1486.043268234791	469.297906877509	1027.836476465255	928.357038522777	608.605721811364	1066.363628718271	953.002460210674	337.563572848952	1098.314314734474	751.335751488383	574.432215762044	1038.241915387041	630.720128597261	637.200543084693	1126.447177663160	590.496731579054	560.283921339115	1143.509846904718	505.019581030681	571.582121069543	1066.796962394351	723.609340165884	366.523995550870	962.086041563871	622.374198999716	293.186055994209	1017.137566477999	533.501953217907	367.351087139476	1001.270708684474	464.916597506363	374.542919845005	960.829729819705	400.579351156426	361.124752160056	853.780878044281	305.039207002564	304.265753141767	878.215713079256	185.938736028149	376.164087454473	1124.313162875827	412.763691918265	583.354227680099	1066.403002054307	307.611999004624	656.561934414027	1115.442097672712	213.460055808490	597.182248165367	994.108517610662	43.450829693350	591.210848972434	1088.014854849848	36.235982645732	651.009334069086	1289.516709152698	55.872213805630	609.931314551834	726.889070921989	42.245274816344	411.545954979363	800.998989911984	37.624272540540	331.642920082877	886.951560127112	96.381969394184	359.567024808246	1013.004591314149	39.668636321584	328.987861623653	1236.946638030526	1153.886522355419	162.072357394931	1492.219105659633	1181.858731246838	204.394576184344	831.801642692197	1126.669093507854	719.973293647968	789.901301449265	866.511129014274	712.338898214361	
